/vscmnt/brussel_pixiu_data/_data_brussel/112/vsc11236/PredSimResults/SUBJ06opt3D/weighted-trackIG/worker_04.mot
version=1
nRows=4
nColumns=50
inDegrees=yes
endheader
                time	         pelvis_tilt	         pelvis_list	     pelvis_rotation	           pelvis_tx	           pelvis_ty	           pelvis_tz	       hip_flexion_r	     hip_adduction_r	      hip_rotation_r	        knee_angle_r	       ankle_angle_r	         mtp_angle_r	       hip_flexion_l	     hip_adduction_l	      hip_rotation_l	        knee_angle_l	       ankle_angle_l	         mtp_angle_l	    lumbar_extension	      lumbar_bending	     lumbar_rotation	 ercspn_r/activation	 intobl_r/activation	 extobl_r/activation	    abd_r/activation	    add_r/activation	hamstrings_r/activation	bifemsh_r/activation	glut_max_r/activation	iliopsoas_r/activation	rect_fem_r/activation	  vasti_r/activation	gastroc_r/activation	 soleus_r/activation	tib_ant_r/activation	 ercspn_l/activation	 intobl_l/activation	 extobl_l/activation	    abd_l/activation	    add_l/activation	hamstrings_l/activation	bifemsh_l/activation	glut_max_l/activation	iliopsoas_l/activation	rect_fem_l/activation	  vasti_l/activation	gastroc_l/activation	 soleus_l/activation	tib_ant_l/activation	
          1.24252454	         -6.82780418	         -0.72848653	          3.91570488	          1.37920224	          0.92788086	         -0.00988737	         33.39671111	         -0.76625493	         -6.17052080	         -8.73374549	          0.13627077	          0.22482796	         -8.87915690	         -0.02495881	         -6.24858112	        -11.78753607	          8.92407226	         34.16406598	         -5.14389950	         -0.38172342	         -8.43193442	          0.18517511	          0.13457334	          0.01000004	          0.01000000	          0.35463130	          0.06985420	          0.10957263	          0.02408327	          0.11674026	          0.01457068	          0.01000008	          0.01000013	          0.01000000	          0.50161367	          0.13258660	          0.01000000	          0.01000002	          0.09284165	          0.01000011	          0.01000005	          0.27833560	          0.01534480	          0.69122505	          0.01046796	          0.01000001	          0.24950258	          0.40454610	          0.02123024	
          1.25494979	         -6.92986753	         -0.65705161	          3.93302267	          1.39625509	          0.92599635	         -0.00899043	         33.60503419	         -0.64224630	         -6.16594295	        -10.63611053	         -0.15891192	          0.21318701	         -9.21321502	         -0.13477595	         -6.65031651	        -12.85141063	          7.94316574	         36.13021394	         -4.78711864	         -0.03254039	         -8.93119752	          0.17432456	          0.11148600	          0.01000005	          0.00999999	          0.42764763	          0.07260925	          0.09077444	          0.11695303	          0.09671235	          0.01207096	          0.01000003	          0.01758354	          0.01758795	          0.51873648	          0.17813077	          0.01000000	          0.01000001	          0.07691377	          0.01000071	          0.01000053	          0.23438956	          0.01541694	          0.68922337	          0.01000191	          0.01000004	          0.21385447	          0.38085905	          0.01758799	
          1.26737503	         -7.00422664	         -0.64601545	          3.94252655	          1.41381112	          0.92431994	         -0.00805985	         33.57020526	         -0.54539035	         -5.95266973	        -12.37694459	         -0.40170803	          0.19146367	         -9.39911469	         -0.34642485	         -7.04140198	        -14.26527733	          6.81897483	         38.16281825	         -4.39748864	          0.38889543	         -9.38499028	          0.14441758	          0.09235951	          0.01000006	          0.02910262	          0.35428062	          0.07607554	          0.07520125	          0.12543423	          0.08012042	          0.01000009	          0.01000009	          0.01456695	          0.01457057	          0.56650073	          0.16446273	          0.01000000	          0.01000003	          0.06371848	          0.01000064	          0.01072587	          0.21735717	          0.01277202	          0.67340011	          0.01000021	          0.01000002	          0.17716569	          0.35180918	          0.01457060	
          1.27980028	         -7.05488174	         -0.67637117	          3.93121139	          1.43160495	          0.92292074	         -0.00699407	         33.37333007	         -0.42743093	         -5.87528492	        -13.87796518	         -0.75000787	          0.17674434	         -9.36240993	         -0.64993871	         -7.43518622	        -16.12082197	          5.51429013	         40.24832769	         -4.00785385	          0.84775360	         -9.78159577	          0.15220360	          0.07651436	          0.01000004	          0.07749232	          0.31957144	          0.08056411	          0.06229979	          0.13679757	          0.06637500	          0.01000002	          0.05106212	          0.01206787	          0.01207085	          0.61757249	          0.17114813	          0.01000000	          0.01000001	          0.05278696	          0.01000018	          0.01000036	          0.19923291	          0.01058087	          0.61039185	          0.01000016	          0.01000000	          0.14677123	          0.30962553	          0.01207088	
